HIERARCHY
ROOT Hips
{
	OFFSET 0.000000 0.000000 0.000000
	CHANNELS 6 Xposition Yposition Zposition Zrotation Yrotation Xrotation 
	JOINT LHipJoint
	{
		OFFSET 0.000000 0.000000 0.000000
		CHANNELS 3 Zrotation Yrotation Xrotation
		JOINT LeftUpLeg
		{
			OFFSET 1.363060 -1.794630 0.839290
			CHANNELS 3 Zrotation Yrotation Xrotation
			JOINT LeftLeg
			{
				OFFSET 2.448110 -6.726130 0.000000
				CHANNELS 3 Zrotation Yrotation Xrotation
				JOINT LeftFoot
				{
					OFFSET 2.562200 -7.039590 0.000000
					CHANNELS 3 Zrotation Yrotation Xrotation
					JOINT LeftToeBase
					{
						OFFSET 0.157640 -0.433110 2.322550
						CHANNELS 3 Zrotation Yrotation Xrotation
						End Site
						{
							OFFSET 0.000000 0.000000 0.000000
						}
					}
				}
			}
		}
	}
	JOINT RHipJoint
	{
		OFFSET 0.000000 0.000000 0.000000
		CHANNELS 3 Zrotation Yrotation Xrotation
		JOINT RightUpLeg
		{
			OFFSET -1.305520 -1.794630 0.839290
			CHANNELS 3 Zrotation Yrotation Xrotation
			JOINT RightLeg
			{
				OFFSET -2.542530 -6.985550 0.000000
				CHANNELS 3 Zrotation Yrotation Xrotation
				JOINT RightFoot
				{
					OFFSET -2.568260 -7.056230 0.000000
					CHANNELS 3 Zrotation Yrotation Xrotation
					JOINT RightToeBase
					{
						OFFSET -0.164730 -0.452590 2.363150
						CHANNELS 3 Zrotation Yrotation Xrotation
						End Site
						{
							OFFSET 0.000000 0.000000 0.000000
						}
					}
				}
			}
		}
	}
}
MOTION
Frames: 19
Frame Time: 0.008333
-2.582326 16.082500 2.224332 122.360005 -86.228933 -120.703757 -9.440586 2.294568 -1.518820 -15.169580 8.789268 -13.034147 -2.462155 1.817378 41.571748 2.727250 9.480915 -30.086991 -4.621200 -0.000001 -22.614500 10.407564 2.322024 -0.809347 3.692849 -12.966638 -46.400880 0.939704 -3.531406 48.644036 -3.944090 -15.280838 -20.439449 2.815300 0.000000 -21.098300
-2.839222 16.173663 2.202595 117.596797 -86.695518 -116.058042 -9.588849 2.434660 -1.319573 -14.267226 8.911732 -10.808482 -2.507237 1.642175 38.901841 2.560541 8.931831 -28.865876 -4.179200 -0.000001 -24.007400 10.176655 2.193987 -0.757471 4.668049 -13.075167 -45.719477 1.105933 -3.247377 46.049733 -3.990341 -15.254832 -20.154821 2.718600 0.000000 -21.295000
-3.099189 16.272440 2.181584 112.244881 -87.178989 -110.878870 -9.760376 2.556578 -1.113154 -13.273293 8.957792 -8.442014 -2.506157 1.457627 36.071043 2.393696 8.510368 -27.351170 -3.740600 0.000000 -25.739400 9.932081 2.025120 -0.703874 5.653213 -13.100650 -44.743350 1.274809 -2.938919 43.238582 -4.041158 -15.274682 -19.848216 2.623500 0.000000 -21.551100
-3.361633 16.377270 2.161111 105.673854 -87.688459 -104.518112 -9.942645 2.665206 -0.900744 -12.209398 8.908451 -5.997181 -2.452271 1.275550 33.155640 2.231018 8.233891 -25.523956 -3.304900 0.000000 -27.904500 9.683087 1.822760 -0.638996 6.640040 -13.028312 -43.493964 1.443096 -2.606394 40.205402 -4.099979 -15.360000 -19.506987 2.526600 -0.000000 -21.898500
-3.625746 16.486503 2.140621 96.257922 -88.226803 -95.332920 -10.113011 2.768686 -0.684909 -11.100715 8.750879 -3.545735 -2.344046 1.110490 30.245600 2.075930 8.106350 -23.367678 -2.863700 -0.000001 -30.591400 9.447849 1.600067 -0.552901 7.616673 -12.846808 -41.997395 1.606847 -2.250063 36.946985 -4.169864 -15.531156 -19.114852 2.422600 0.000000 -22.349400
-3.890914 16.598523 2.119166 80.022863 -88.785677 -79.329697 -10.228070 2.884197 -0.469020 -9.969222 8.486028 -1.169269 -2.189328 0.980878 27.443048 1.930750 8.115374 -20.876699 -2.402400 0.000000 -33.862900 9.266411 1.384419 -0.436252 8.573722 -12.541588 -40.284184 1.759977 -1.868250 33.469179 -4.253386 -15.808708 -18.655573 2.305200 -0.000000 -22.880400
-4.152941 16.713380 2.096028 23.556226 -89.071826 -23.181867 -10.241008 3.189595 -0.071705 -8.738755 7.309194 1.033742 -2.052128 1.013021 25.060941 1.810552 8.326797 -18.180023 -1.925200 0.000000 -37.614800 9.247368 1.424437 -0.607874 9.717871 -13.222350 -38.254646 1.938226 -1.392065 29.771428 -4.261763 -15.864721 -18.131859 2.170800 0.000000 -23.541101
-4.418231 16.826635 2.069167 5.218565 -89.138935 -5.043262 -10.483225 3.447041 0.156871 -7.815535 6.973711 3.006669 -1.900627 1.026121 22.725958 1.682955 8.509273 -15.047020 -1.375200 0.000000 -42.021400 9.033467 1.313377 -0.479754 10.445330 -12.664438 -36.228021 2.001989 -0.892748 25.992868 -4.363528 -16.328273 -17.480814 2.005500 0.000000 -24.078300
-4.682664 16.938442 2.037925 -5.366345 -88.915255 5.368770 -10.741554 3.668577 0.357952 -6.988798 6.596048 4.723840 -1.713506 1.065340 20.801062 1.563490 8.662083 -11.628246 -0.779200 -0.000000 -46.782400 8.794655 1.161761 -0.304857 10.985220 -12.064620 -34.134604 2.045381 -0.405429 22.130119 -4.480514 -16.940864 -16.749271 1.807300 0.000000 -24.475200
-4.945674 17.047600 2.001723 -10.392438 -88.534471 10.241175 -10.922103 3.876640 0.524269 -6.229617 6.229076 6.150619 -1.514809 1.140222 19.340134 1.451256 8.723565 -7.988985 -0.157899 -0.000000 -51.615100 8.625525 1.021321 -0.090448 11.361872 -11.423947 -32.014969 2.060929 0.062831 18.281275 -4.607425 -17.690533 -15.952576 1.574800 -0.000001 -24.643099
-5.206747 17.153090 1.960592 -11.962870 -88.099809 11.667978 -11.023210 4.088001 0.657732 -5.543330 5.922820 7.269057 -1.325066 1.252613 18.362417 1.347882 8.648332 -4.203927 0.449400 0.000000 -56.173300 8.543230 0.918215 0.142504 11.581582 -10.771119 -29.929491 2.041068 0.504994 14.583477 -4.735569 -18.532435 -15.121845 1.312600 -0.000001 -24.530701
-5.465431 17.253961 1.915216 -11.490898 -87.651842 11.052429 -11.065765 4.300922 0.760335 -4.927272 5.708429 8.086788 -1.151096 1.393618 17.864077 1.258589 8.412202 -0.358442 0.993500 -0.000000 -60.106100 8.535627 0.851684 0.369175 11.665086 -10.163242 -27.946614 1.989234 0.903511 11.192063 -4.854221 -19.399694 -14.301827 1.033200 -0.000000 -24.164900
-5.721848 17.349702 1.866978 -9.952063 -87.214278 9.368045 -11.073961 4.510052 0.840655 -4.365820 5.611543 8.610223 -0.992206 1.549242 17.815981 1.189964 8.012871 3.466266 1.429100 -0.000000 -63.141000 8.580501 0.809361 0.578736 11.655167 -9.635775 -26.122438 1.916591 1.247237 8.209384 -4.957511 -20.226830 -13.552712 0.760000 -0.000000 -23.478000
-5.975160 17.439389 1.817445 -8.049228 -86.800134 7.305040 -11.069398 4.705805 0.899693 -3.835482 5.641472 8.876533 -0.844917 1.706637 18.174976 1.151380 7.493542 7.161620 1.727199 0.000000 -65.055300 8.654759 0.779935 0.751783 11.602835 -9.225686 -24.500561 1.836114 1.522521 5.755064 -5.039372 -20.954474 -12.910831 0.513100 -0.000000 -22.669901
-6.225303 17.522422 1.768192 -6.213065 -86.430537 5.297357 -11.067743 4.881798 0.940310 -3.316609 5.807306 8.915825 -0.706505 1.853939 18.884550 1.149161 6.925526 10.624037 1.889600 0.000001 -65.749700 8.737717 0.753829 0.887135 11.551668 -8.918472 -23.099642 1.758638 1.727968 3.877380 -5.102438 -21.554740 -12.415650 0.315600 0.000000 -21.815300
-6.472443 17.598339 1.720981 -4.839784 -86.131278 3.740102 -11.086603 5.033499 0.961015 -2.769759 6.137204 8.756502 -0.574389 1.983064 19.888939 1.183969 6.385714 13.760107 1.944600 0.000000 -65.285700 8.807197 0.720481 0.993972 11.548618 -8.668435 -21.884659 1.692526 1.874411 2.518804 -5.151891 -22.036379 -12.061768 0.172200 -0.000000 -20.951400
-6.716144 17.666134 1.676445 -3.897024 -85.917851 2.601313 -11.123845 5.156508 0.955577 -2.199831 6.630751 8.440868 -0.450015 2.090792 21.135324 1.254777 5.997840 16.471477 1.957499 -0.000000 -63.763600 8.858724 0.679218 1.075743 11.596811 -8.438791 -20.851142 1.639099 1.962261 1.696443 -5.191819 -22.399898 -11.861563 0.093000 -0.000001 -20.216000
-6.956559 17.725025 1.635059 -3.385223 -85.803134 1.881192 -11.180065 5.249926 0.917790 -1.598640 7.304498 7.999071 -0.334133 2.177948 22.581719 1.355720 5.865858 18.692794 2.003900 0.000000 -61.425800 8.887747 0.626826 1.142150 11.700439 -8.190644 -19.959251 1.598482 2.000150 1.341858 -5.224006 -22.657319 -11.791781 0.071200 0.000000 -19.658400
-7.193749 17.774078 1.596708 -3.185849 -85.790528 1.458684 -11.249487 5.314036 0.841048 -0.973059 8.161949 7.462400 -0.227840 2.248845 24.195493 1.480843 6.086745 20.381010 2.159400 -0.000000 -58.551900 8.897578 0.563365 1.197550 11.847315 -7.908078 -19.173811 1.568777 1.993773 1.394292 -5.245737 -22.807340 -11.824095 0.096300 -0.000000 -19.329900
